<?xml version="1.0" encoding="utf-8"?>
<!-- Generator: Adobe Illustrator 20.0.0, SVG Export Plug-In . SVG Version: 6.00 Build 0)  -->
<svg version="1.1" id="Touch_ID" xmlns="http://www.w3.org/2000/svg" xmlns:xlink="http://www.w3.org/1999/xlink" x="0px" y="0px"
	 viewBox="0 0 200 200" style="enable-background:new 0 0 200 200;" xml:space="preserve">
<style type="text/css">
	.st0{fill:none;stroke:#929292;stroke-width:8;stroke-linecap:round;stroke-miterlimit:10;}
</style>
<g id="Large">
	<g>
		<path class="st0" d="M7.9,72.9C5.4,81.5,4,90.6,4,100c0,10.6,1.7,20.8,4.9,30.4"/>
		<path class="st0" d="M98.9,4C61.4,4.4,29.1,26.3,13.6,58"/>
		<path class="st0" d="M196,97.3c-1.3-46.7-36-85.1-81.1-92.1"/>
		<path class="st0" d="M94.3,182c-1.9,5.3-3.8,9.8-5.5,13.4"/>
		<path class="st0" d="M100,100c0,0,6.3,25.3,1.6,54.2c-0.7,4.3-1.6,8.5-2.6,12.5"/>
		<path class="st0" d="M118.4,148.7c-0.2,1.8-0.5,3.6-0.8,5.5c-2.9,18-8,33.1-11.5,41.8"/>
		<path class="st0" d="M72.3,191.9c4.5-8.9,10.1-22.1,12.8-37.7c4-23,0.5-44-0.8-51.4c-0.2-0.9-0.2-1.9-0.2-2.8c0-8.8,7.2-16,16-16
			c7.6,0,13.9,5.3,15.6,12.4c0,0,3.7,16.2,3.7,36.4"/>
		<path class="st0" d="M182.8,128.8c0.1,6.4,0,13.2-0.4,20.4"/>
		<path class="st0" d="M68.6,26.4C78.3,22.3,88.9,20,100,20c40.4,0,73.9,30.1,79.3,69c0,0,1.7,9.3,2.8,23.7"/>
		<path class="st0" d="M19.7,152.6c1-2.4,1.8-5,2.4-7.8c2.3-9.9,0.4-23.9-1-31.5C20.4,109,20,104.5,20,100
			c0-27.4,13.7-51.5,34.7-65.9"/>
		<path class="st0" d="M115.9,38c-5.1-1.3-10.4-2-15.9-2c-35.3,0-64,28.7-64,64c0,3.3,0.3,6.6,0.7,9.8c1.5,8.4,3.5,22.6,0.9,36.9
			c-1.4,7.6-3.9,14.3-6.7,20"/>
		<path class="st0" d="M163.8,171.7c0.6-3.3,1.1-6.8,1.5-10.3c4.7-36.9-2.1-71-2.1-71c-3-20.1-15.4-37.1-32.5-46.5"/>
		<path class="st0" d="M145.5,84.7c0.6,1.8,1.1,3.7,1.5,5.6c1.9,9.8,5.9,34,3.2,60.8c-1.3,12.9-3.6,24.5-6.1,34.1"/>
		<path class="st0" d="M54.3,142c2-18.3-1.4-32.6-1.4-32.6c-0.6-3-0.9-6.2-0.9-9.4c0-26.5,21.5-48,48-48c15.4,0,29.1,7.3,37.9,18.5"
			/>
		<path class="st0" d="M43.4,177.6c2.9-5.6,5.8-12.3,7.9-19.9"/>
		<path class="st0" d="M89,69.9c3.4-1.3,7.1-1.9,11-1.9c15.4,0,28.3,10.9,31.3,25.4c1.7,8.2,5.8,31.7,2.9,58.1
			c-1.9,16.7-5.8,31.2-9.3,41.3"/>
		<path class="st0" d="M57.4,186.1c4.8-9.1,9.7-21,11.8-34.1c3.1-19.8,0.8-37.5-0.7-46.2c-0.4-1.9-0.5-3.7-0.5-5.8
			c0-8.1,3-15.5,7.9-21.1"/>
	</g>
</g>
</svg>
